<?xml version="1.0" encoding="utf-8"?>
<!-- Generator: Adobe Illustrator 25.1.0, SVG Export Plug-In . SVG Version: 6.00 Build 0)  -->
<svg version="1.1" id="Layer_1" xmlns="http://www.w3.org/2000/svg" xmlns:xlink="http://www.w3.org/1999/xlink" x="0px" y="0px"
	 viewBox="0 0 160 160" style="enable-background:new 0 0 160 160;" xml:space="preserve">
<style type="text/css">
	.st0{stroke:#000000;stroke-width:8;stroke-miterlimit:10;}
</style>
<g>
	<path class="st0" d="M80.6,65.21c2.11,0.5,4.04,1.03,5.78,1.59c14.8,5.47,23.07,16.04,24.81,31.71c0.43,6.16-0.71,12-3.45,17.53
		c-4.79,9.95-11.94,17.6-21.45,22.94c-13.31,7.34-27.51,10.07-42.62,8.21c-7.77-0.75-15.2-2.74-22.29-5.97
		c-0.25-0.12-0.53-0.25-0.84-0.37c-0.5-0.19-1-0.42-1.49-0.7c-0.5-0.28-0.93-0.67-1.31-1.17c-0.75-1.12-0.84-2.27-0.28-3.45
		c0.31-0.56,0.71-1.03,1.21-1.4c0.5-0.37,1.06-0.5,1.68-0.37c2.05,0.44,4.1,1.09,6.16,1.96c9.33,3.73,18.99,5.35,29,4.85
		c6.59-0.31,12.84-1.52,18.75-3.64c5.91-2.11,11.38-5.38,16.41-9.79c6.47-5.47,10.69-12.34,12.68-20.61
		c2.18-11.81-1.49-21.39-11-28.72c-5.41-3.98-11.5-5.94-18.28-5.88c-0.62-0.06-1.27-0.06-1.96,0c-1.74,0.13-3.48-0.03-5.22-0.47
		c-1.49-0.56-2.41-1.45-2.75-2.66c-0.34-1.21,0.01-2.41,1.07-3.59c1.12-1.24,2.33-2.39,3.64-3.45c0.37-0.31,0.75-0.62,1.12-0.93
		c0.81-0.68,1.59-1.34,2.33-1.96c4.48-3.67,8.64-7.65,12.5-11.94c2.18-2.55,4.2-5.22,6.06-8.02c0.93-1.43,1.62-2.98,2.05-4.66
		c1.68-5.97-0.53-8.86-6.62-8.67c-1.49,0-2.92,0.16-4.29,0.47c-5.84,1.43-11.38,3.45-16.6,6.06s-9.95,6.09-14.18,10.45
		c-0.13,0.06-0.22,0.16-0.28,0.28c-0.06,0.06-0.13,0.16-0.19,0.28c-1.62,1.62-3.11,1.93-4.48,0.93c-0.87-0.56-1.43-1.31-1.68-2.24
		c-0.25-0.93-0.13-1.87,0.37-2.8c0.87-1.49,1.96-2.77,3.26-3.82c9.45-7.83,20.14-13.18,32.08-16.04c3.29-0.87,6.65-1.03,10.07-0.47
		c6.34,1.18,9.76,4.94,10.26,11.28c0.06,3.92-0.87,7.62-2.8,11.1c-2.86,5.1-6.4,9.67-10.63,13.71c-1.99,1.99-4.17,4.07-6.53,6.25
		c-1.12,1.06-2.3,2.18-3.54,3.36C78.4,64.68,79.55,64.96,80.6,65.21z"/>
</g>
<g>
	<path d="M131.14,132.06c1.47,0.79,2.91,1.69,4.34,2.72c1.42,1.03,2.52,2.42,3.31,4.19c1.67,5,0.29,8.87-4.12,11.61
		c-1.08,0.49-2.16,0.79-3.23,0.88c-1.08,0-2.4-0.39-3.97-1.18c-1.57-0.78-2.99-1.74-4.26-2.87c-1.27-1.13-2.06-2.23-2.35-3.31
		c-1.27-4.02-1.18-8.03,0.29-12.05c0.78-1.86,2.65-2.74,5.58-2.65C128.01,130.4,129.48,131.28,131.14,132.06z"/>
</g>
</svg>
