<?xml version="1.0" encoding="utf-8"?>
<!-- Generator: Adobe Illustrator 25.1.0, SVG Export Plug-In . SVG Version: 6.00 Build 0)  -->
<svg version="1.1" id="Layer_1" xmlns="http://www.w3.org/2000/svg" xmlns:xlink="http://www.w3.org/1999/xlink" x="0px" y="0px"
	 viewBox="0 0 160 160" style="enable-background:new 0 0 160 160;" xml:space="preserve">
<style type="text/css">
	.st0{stroke:#000000;stroke-width:8;stroke-miterlimit:10;}
</style>
<g>
	<path class="st0" d="M32.91,140.33c1.62,0,3.26,0,4.94,0c4.79-0.06,9.57-0.09,14.36-0.09c12.56,0,25.15-0.03,37.77-0.09
		c1.93,0,3.85,0.09,5.78,0.28c1.37,0.19,2.74,0.56,4.1,1.12c1.49,0.68,2.08,1.87,1.77,3.54c-0.31,1.31-1.15,2.05-2.52,2.24
		c-0.93,0.12-1.9,0.19-2.89,0.19c-23.38-0.62-46.79-0.53-70.23,0.28c-0.06,0-0.13,0-0.19,0c-1.87,0.19-3.7,0-5.5-0.56
		c-0.93-0.37-1.57-1.04-1.91-2c-0.34-0.96-0.3-1.88,0.14-2.75c0.31-0.68,0.68-1.31,1.12-1.87c3.54-4.35,6.81-8.92,9.79-13.71
		c0.75-1.18,1.49-2.33,2.24-3.45c7.52-11.25,15.39-22.26,23.6-33.01c8.45-10.88,16.04-22.32,22.76-34.32
		c4.29-7.58,7.65-15.57,10.07-23.97c0.81-2.8,1.06-5.66,0.75-8.58c-0.06-0.81-0.37-1.41-0.93-1.82c-0.56-0.4-1.25-0.51-2.05-0.33
		c-1.93,0.44-3.76,1.03-5.5,1.77C68.25,28.6,58,36.44,49.6,46.69c-2.05,2.67-3.82,5.53-5.32,8.58c-1.31,2.18-2.89,2.8-4.76,1.87
		c-0.69-0.37-1.18-0.95-1.49-1.73c-0.31-0.78-0.34-1.66-0.09-2.66c0.5-1.62,1.18-3.14,2.05-4.57c2.11-3.23,4.41-6.31,6.9-9.23
		c8.33-9.33,18.19-16.57,29.56-21.73c2.86-1.31,5.84-2.27,8.95-2.89c6.03-0.68,9.57,1.99,10.63,8.02c0.37,3.42,0.15,6.78-0.65,10.07
		c-2.11,7.96-5.07,15.57-8.86,22.85c-6.4,12.25-13.8,23.84-22.2,34.79c-11.13,14.61-21.7,29.56-31.71,44.86
		c-0.25,0.37-0.5,0.72-0.75,1.03c-0.5,0.56-0.9,1.18-1.21,1.87c-0.31,0.68-0.31,1.52,0,2.52C31.42,140.33,32.16,140.33,32.91,140.33
		z"/>
</g>
<g>
	<path d="M131.14,132.06c1.47,0.79,2.91,1.69,4.34,2.72c1.42,1.03,2.52,2.42,3.31,4.19c1.67,5,0.29,8.87-4.12,11.61
		c-1.08,0.49-2.16,0.79-3.23,0.88c-1.08,0-2.4-0.39-3.97-1.18c-1.57-0.78-2.99-1.74-4.26-2.87c-1.27-1.13-2.06-2.23-2.35-3.31
		c-1.27-4.02-1.18-8.03,0.29-12.05c0.78-1.86,2.65-2.74,5.58-2.65C128.01,130.4,129.48,131.28,131.14,132.06z"/>
</g>
</svg>
