<?xml version="1.0" encoding="utf-8"?>
<!-- Generator: Adobe Illustrator 25.1.0, SVG Export Plug-In . SVG Version: 6.00 Build 0)  -->
<svg version="1.1" id="Layer_1" xmlns="http://www.w3.org/2000/svg" xmlns:xlink="http://www.w3.org/1999/xlink" x="0px" y="0px"
	 viewBox="0 0 160 160" style="enable-background:new 0 0 160 160;" xml:space="preserve">
<style type="text/css">
	.st0{stroke:#000000;stroke-width:8;stroke-miterlimit:10;}
</style>
<g>
	<path class="st0" d="M95.34,75.77c0.46-0.39,0.95-0.75,1.47-1.08c1.24-0.92,2.55-1.7,3.93-2.36c1.63-0.59,2.98-0.2,4.02,1.18
		c0.92,1.51,0.82,2.91-0.29,4.22c-1.64,1.7-3.4,3.17-5.3,4.42c-0.2,0.07-0.36,0.16-0.49,0.29c-3.47,2.29-7.07,4.29-10.8,5.99
		c-2.94,1.37-4.81,3.57-5.59,6.58c-1.7,5.56-3.47,11.06-5.3,16.49c-1.7,5.43-3.4,10.83-5.1,16.19c-0.33,0.98-0.65,2-0.98,3.04
		c-1.31,3.53-2.19,7.16-2.65,10.89c-0.2,0.98-0.62,1.9-1.28,2.75c-0.85,1.11-1.96,1.51-3.34,1.18c-1.44-0.26-2.29-1.08-2.55-2.45
		c-0.39-3.34,0-6.58,1.18-9.72c3.4-10.66,6.77-21.33,10.11-32c0.46-1.5,0.88-2.98,1.28-4.42c0.2-0.65,0.39-1.28,0.59-1.87
		c-0.59-0.46-1.15-0.69-1.67-0.69c-0.52,0-1.02,0.07-1.47,0.2c-0.26,0.07-0.49,0.13-0.69,0.2c-5.3,0.98-10.63,1.18-16,0.59
		c-11.58-1.63-17.47-8.28-17.67-19.92c0.2-4.32,0.85-8.57,1.96-12.76c2.94-12.63,6.77-24.99,11.48-37.1
		c0.65-1.63,1.44-3.21,2.36-4.71c0.46-0.65,1.08-1.06,1.86-1.23c0.79-0.16,1.5-0.05,2.16,0.34c1.57,0.79,2.26,2.03,2.06,3.73
		c-0.33,1.24-0.75,2.49-1.28,3.73c-0.13,0.46-0.26,0.88-0.39,1.28c-4.12,10.93-7.59,22.08-10.4,33.47
		c-1.05,4.19-1.77,8.41-2.16,12.66c-0.59,8.05,3.21,12.43,11.38,13.15c6.08,0.59,12.1,0,18.06-1.77c2.62-0.72,4.35-2.39,5.2-5
		c0.98-3.4,2.09-6.77,3.34-10.11c5.89-15.7,11.78-31.37,17.67-47.01c0.65-1.7,1.41-3.3,2.26-4.81c1.37-2.29,3.04-3.11,5-2.45
		c2.16,0.85,2.68,2.75,1.57,5.69c-1.44,3.73-2.88,7.46-4.32,11.19c-4.32,11.19-8.6,22.38-12.86,33.57
		c-0.26,0.72-0.56,1.44-0.88,2.16c-1.37,2.94-2.29,6.35-2.75,10.21C91.09,78.58,93.51,77.28,95.34,75.77z"/>
</g>
<g>
	<path d="M109.82,127.66c1.47,0.79,2.91,1.69,4.34,2.72c1.42,1.03,2.52,2.42,3.31,4.19c1.67,5,0.29,8.87-4.12,11.61
		c-1.08,0.49-2.16,0.79-3.23,0.88c-1.08,0-2.4-0.39-3.97-1.18c-1.57-0.78-2.99-1.74-4.26-2.87c-1.27-1.13-2.06-2.23-2.35-3.31
		c-1.27-4.02-1.18-8.03,0.29-12.05c0.78-1.86,2.65-2.74,5.58-2.65C106.68,125.99,108.15,126.87,109.82,127.66z"/>
</g>
<g>
</g>
<g>
</g>
<g>
</g>
<g>
</g>
<g>
</g>
<g>
</g>
</svg>
