<?xml version="1.0" encoding="utf-8"?>
<!-- Generator: Adobe Illustrator 25.1.0, SVG Export Plug-In . SVG Version: 6.00 Build 0)  -->
<svg version="1.1" id="Layer_1" xmlns="http://www.w3.org/2000/svg" xmlns:xlink="http://www.w3.org/1999/xlink" x="0px" y="0px"
	 viewBox="0 0 160 160" style="enable-background:new 0 0 160 160;" xml:space="preserve">
<style type="text/css">
	.st0{stroke:#000000;stroke-width:8;stroke-miterlimit:10;}
</style>
<g>
	<path class="st0" d="M92.65,17.73c-1.6,0.56-3.07,0.94-4.39,1.15c-0.98,0.14-1.86-0.09-2.66-0.68c-0.8-0.59-1.34-1.34-1.62-2.25
		c-0.28-1.88,0.38-3.24,1.99-4.08c0.77-0.35,1.53-0.73,2.3-1.15c3.34-1.74,6.72-3.34,10.14-4.81c1.95-0.77,3.59-0.63,4.91,0.42
		c1.32,1.04,1.99,2.65,1.99,4.81c-0.28,2.72-0.91,5.29-1.88,7.73c-0.21,0.56-0.42,1.12-0.63,1.67c-1.95,5.78-3.94,11.53-5.96,17.24
		c-3.62,10.38-7.14,20.76-10.55,31.14c-6.97,21.88-13.41,43.92-19.33,66.14c-0.14,0.35-0.25,0.7-0.31,1.04
		c-0.14,0.42-0.28,0.84-0.42,1.25c-0.49,1.81-0.52,3.01-0.1,3.6c0.42,0.59,1.53,0.85,3.34,0.78c0.63,0,1.25,0,1.88,0
		c1.25,0,2.51,0.04,3.76,0.1c1.46,0.21,2.37,1.04,2.72,2.51c0.35,1.46-0.07,2.68-1.25,3.66c-1.25,1.04-2.75,1.57-4.49,1.57
		c-5.43,0.35-10.8,1.08-16.09,2.19c-0.77,0.14-1.53,0.28-2.3,0.42c-0.84,0.21-1.64,0.21-2.4,0c-1.39-0.42-2.3-1.32-2.72-2.72
		c-0.21-0.77-0.17-1.45,0.1-2.04c0.28-0.59,0.66-1.13,1.15-1.62c0.14-0.21,0.33-0.38,0.57-0.52c0.24-0.14,0.5-0.24,0.78-0.31
		c2.37-0.42,4.02-1.39,4.96-2.93c0.94-1.53,1.65-3.38,2.14-5.54c5.15-19.16,10.61-38.24,16.35-57.26
		c5.75-19.02,12.03-37.86,18.86-56.53c0.35-0.9,0.7-1.99,1.04-3.24c0.21-0.7,0.45-1.53,0.73-2.51
		C94.28,17.28,93.41,17.52,92.65,17.73z"/>
</g>
<g>
	<path d="M108.44,132.52c1.47,0.79,2.91,1.69,4.34,2.72c1.42,1.03,2.52,2.42,3.31,4.19c1.67,5,0.29,8.87-4.12,11.61
		c-1.08,0.49-2.16,0.79-3.23,0.88c-1.08,0-2.4-0.39-3.97-1.18c-1.57-0.78-2.99-1.74-4.26-2.87c-1.27-1.12-2.06-2.23-2.35-3.31
		c-1.27-4.02-1.18-8.03,0.29-12.05c0.78-1.86,2.65-2.74,5.58-2.65C105.31,130.86,106.78,131.74,108.44,132.52z"/>
</g>
</svg>
